# xmcd
#
# Track frame offsets: 
#        180
#        19029
#        36094
#        51656
#        69127
#        90805
#        105424
#        123800
#        139913
#        153808
#        173904
#        191241
#
# Disc length: 2846 seconds
#
# Revision: 0
# Processed by: cddbd v1.5.1PL0 Copyright (c) Steve Scherf et al.
# Submitted via: ExactAudioCopy v0.95a5
#
DISCID=920b1c0c
DTITLE=Pharoah - Six Foot Giant
DYEAR=1998
DGENRE=Gangsta Rap
TTITLE0=Get Paid
TTITLE1=Struggling for sanity
TTITLE2=Pressure Be Pumpin'
TTITLE3=They Gonna Learn
TTITLE4=What'cha Gonna Do
TTITLE5=Six Foot Gaint
TTITLE6=About Being Woke
TTITLE7=Rock,Rock A Bird
TTITLE8=Watch Dog
TTITLE9=On Top Of My Game
TTITLE10=Pissed Of In My Mind
TTITLE11=X2c
EXTD=
EXTT0=
EXTT1=
EXTT2=
EXTT3=
EXTT4=
EXTT5=
EXTT6=
EXTT7=
EXTT8=
EXTT9=
EXTT10=
EXTT11=
PLAYORDER=
